<?xml version="1.0" encoding="iso-8859-1"?>
<!-- Generator: Adobe Illustrator 19.0.0, SVG Export Plug-In . SVG Version: 6.00 Build 0)  -->
<svg xmlns="http://www.w3.org/2000/svg" xmlns:xlink="http://www.w3.org/1999/xlink" version="1.1" id="Layer_1" x="0px" y="0px" viewBox="0 0 490.655 490.655" style="enable-background:new 0 0 490.655 490.655;" xml:space="preserve" width="512" height="512">
<g>
	<path d="M124.904,103.962c9.082,0.007,17.617,3.543,24.033,9.959l46.015,46.012c1.464,1.465,3.384,2.197,5.303,2.197   s3.839-0.732,5.303-2.197c2.929-2.929,2.929-7.677,0-10.606l-29.6-29.6c-0.007-0.007-0.016-0.013-0.023-0.021   c-6.398-6.408-9.925-14.932-9.932-24c0-9.072,3.534-17.603,9.951-24.02c6.418-6.418,14.936-9.951,23.995-9.951   c0.008,0,0.017,0,0.025,0c9.071,0,17.594,3.523,24.004,9.921c0.008,0.009,0.015,0.018,0.024,0.026l41.875,41.876   c1.464,1.465,3.384,2.197,5.303,2.197s3.839-0.732,5.303-2.197c2.929-2.929,2.929-7.677,0-10.606L247.112,73.58   c-0.012-0.013-0.023-0.026-0.035-0.039c-13.024-13.024-12.779-35.275,0.535-48.59c6.417-6.417,14.948-9.951,24.02-9.951   c9.082,0,17.618,3.534,24.035,9.951l28.528,28.528c2.929,2.929,7.678,2.929,10.606,0c2.929-2.929,2.929-7.678,0-10.607   l-28.528-28.528C297.023,5.094,284.72,0,271.631,0c-13.079,0-25.376,5.094-34.626,14.345   c-10.403,10.403-15.294,24.234-14.646,37.772c-6.838-3.519-14.465-5.382-22.38-5.382c-0.013,0-0.024,0-0.037,0   c-13.059,0-25.344,5.094-34.595,14.344c-9.25,9.25-14.345,21.547-14.345,34.632c0,0.257,0.002,0.514,0.006,0.77   c-7.737-4.891-16.716-7.513-26.1-7.52c-13.079,0-25.376,5.094-34.626,14.345c-9.25,9.25-14.343,21.549-14.341,34.631   c0.001,6.116,1.116,12.061,3.248,17.604c-14.248-1.54-29.044,3.137-39.936,14.028c-9.25,9.25-14.345,21.548-14.345,34.632   c0.01,13.084,5.104,25.38,14.391,34.666l38.878,38.212l-18.111,18.111c-24.354,24.355-24.354,63.983,0,88.338l32.969,32.969   c1.314,1.302,32.685,32.123,76.579,53.73c1.065,0.524,2.194,0.773,3.307,0.773c2.768,0,5.43-1.539,6.735-4.189   c1.829-3.716,0.3-8.212-3.417-10.041c-41.619-20.487-72.345-50.629-72.623-50.904l-32.943-32.943   c-18.506-18.506-18.506-48.618,0-67.125l18.203-18.203l66.501,66.269c1.464,1.465,3.384,2.197,5.303,2.197s3.839-0.732,5.303-2.197   c2.929-2.929,2.929-7.677,0-10.606L49.86,228.217c-6.411-6.411-9.944-14.943-9.951-24.02c0-9.072,3.534-17.603,9.951-24.02   c13.22-13.219,34.732-13.239,47.982-0.056c0.012,0.012,0.022,0.025,0.034,0.037l47.973,47.973c1.464,1.465,3.384,2.197,5.303,2.197   s3.839-0.732,5.303-2.197c2.929-2.929,2.929-7.678,0-10.606l-55.558-55.564c-6.418-6.418-9.954-14.95-9.955-24.025   s3.531-17.606,9.947-24.022C107.306,107.497,115.837,103.962,124.904,103.962z"/>
	<path d="M463.452,231.911c-7.188-45.566-30.791-91.178-64.755-125.143l-42.681-42.681c-2.929-2.929-7.678-2.929-10.606,0   c-2.929,2.929-2.929,7.677,0,10.606l42.681,42.681c31.772,31.772,53.84,74.371,60.545,116.874   c5.265,33.374,3.25,81.448-36.25,120.948l-87.351,87.35c-32.124,32.124-72.269,40.924-119.324,26.156   c-3.949-1.24-8.161,0.958-9.401,4.91c-1.24,3.952,0.958,8.161,4.91,9.402c16.211,5.088,31.892,7.64,46.851,7.64   c6.953,0,13.753-0.552,20.373-1.657c24.975-4.169,47.583-16.229,67.198-35.844l87.351-87.351   c18.031-18.031,30.55-39.384,37.208-63.464C466.269,280.393,467.362,256.698,463.452,231.911z"/>
	<path d="M221.026,297.148c-2.929,2.929-2.929,7.677,0,10.606l62.726,62.726c1.464,1.465,3.384,2.197,5.303,2.197   s3.839-0.732,5.303-2.197c2.929-2.929,2.929-7.677,0-10.606l-62.726-62.726C228.704,294.219,223.955,294.219,221.026,297.148z"/>
	<path d="M325.645,336.087c1.919,0,3.839-0.732,5.303-2.197c2.929-2.929,2.929-7.677,0-10.606l-62.726-62.726   c-2.929-2.929-7.678-2.929-10.606,0c-2.929,2.929-2.929,7.677,0,10.606l62.726,62.726   C321.806,335.354,323.726,336.087,325.645,336.087z"/>
	<path d="M362.235,299.497c1.919,0,3.839-0.732,5.303-2.197c2.929-2.929,2.929-7.677,0-10.606l-62.726-62.726   c-2.929-2.929-7.678-2.929-10.606,0c-2.929,2.929-2.929,7.677,0,10.606l62.726,62.726   C358.396,298.765,360.315,299.497,362.235,299.497z"/>
</g>















</svg>
